# Blender 3.4.1
# www.blender.org
o Cube
v -0.500000 -0.500000 0.300000
v -0.500000 0.500000 0.300000
v 0.500000 -0.500000 0.300000
v 0.500000 0.500000 0.300000
v -0.500000 -0.500000 2.300000
v -0.500000 0.500000 2.300000
v 0.500000 -0.500000 2.300000
v 0.500000 0.500000 2.300000
v 1.000000 0.000000 -0.053007
v 0.980785 -0.195090 -0.053007
v 0.923880 -0.382683 -0.053007
v 0.831470 -0.555570 -0.053007
v 0.707107 -0.707107 -0.053007
v 0.555570 -0.831470 -0.053007
v 0.382684 -0.923879 -0.053007
v 0.195090 -0.980785 -0.053007
v 0.000000 -1.000000 -0.053007
v -0.195090 -0.980785 -0.053007
v -0.382683 -0.923879 -0.053007
v -0.555570 -0.831470 -0.053007
v -0.707107 -0.707107 -0.053007
v -0.831470 -0.555570 -0.053007
v -0.923879 -0.382683 -0.053007
v -0.980785 -0.195090 -0.053007
v -1.000000 0.000000 -0.053007
v -0.980785 0.195090 -0.053007
v -0.923879 0.382683 -0.053007
v -0.831470 0.555570 -0.053007
v -0.707107 0.707107 -0.053007
v -0.555570 0.831470 -0.053007
v -0.382683 0.923880 -0.053007
v -0.195090 0.980785 -0.053007
v 0.000000 1.000000 -0.053007
v 0.195090 0.980785 -0.053007
v 0.382684 0.923880 -0.053007
v 0.555570 0.831470 -0.053007
v 0.707107 0.707107 -0.053007
v 0.831470 0.555570 -0.053007
v 0.923880 0.382683 -0.053007
v 0.980785 0.195090 -0.053007
v 0.000000 -0.000000 1.152108
vn -0.6667 -0.6667 -0.3333
vn -0.6667 0.6667 -0.3333
vn 0.6667 0.6667 -0.3333
vn 0.6667 -0.6667 -0.3333
vn 0.6667 0.6667 0.3333
vn 0.6667 -0.6667 0.3333
vn -0.6667 0.6667 0.3333
vn -0.6667 -0.6667 0.3333
vn 0.9915 -0.0000 -0.1299
vn -0.0000 -0.0000 1.0000
vn 0.9725 -0.1934 -0.1299
vn 0.9160 -0.3794 -0.1299
vn 0.8244 -0.5509 -0.1299
vn 0.7011 -0.7011 -0.1299
vn 0.5509 -0.8244 -0.1299
vn 0.3794 -0.9160 -0.1299
vn 0.1934 -0.9725 -0.1299
vn -0.0000 -0.9915 -0.1299
vn -0.1934 -0.9725 -0.1299
vn -0.3794 -0.9160 -0.1299
vn -0.5509 -0.8244 -0.1299
vn -0.7011 -0.7011 -0.1299
vn -0.8244 -0.5509 -0.1299
vn -0.9160 -0.3794 -0.1299
vn -0.9725 -0.1934 -0.1299
vn -0.9915 -0.0000 -0.1299
vn -0.9725 0.1934 -0.1299
vn -0.9160 0.3794 -0.1299
vn -0.8244 0.5509 -0.1299
vn -0.7011 0.7011 -0.1299
vn -0.5509 0.8244 -0.1299
vn -0.3794 0.9160 -0.1299
vn -0.1934 0.9725 -0.1299
vn -0.0000 0.9915 -0.1299
vn 0.1934 0.9725 -0.1299
vn 0.3794 0.9160 -0.1299
vn 0.5509 0.8244 -0.1299
vn 0.7011 0.7011 -0.1299
vn 0.8244 0.5509 -0.1299
vn 0.9160 0.3794 -0.1299
vn 0.9725 0.1934 -0.1299
vt 0.845828 0.661784
vt 0.523649 0.000173
vt 0.492695 0.676740
vt 0.676740 0.661784
vt 0.195264 0.195265
vt 0.845828 0.492695
vt 0.492695 0.845828
vt 0.676740 0.492695
vt 0.000173 0.523649
vt 0.676393 0.350267
vt 0.323607 0.676740
vt 0.396096 0.396096
vt 0.845828 0.323607
vt 0.676393 0.676393
vt 0.323606 0.845828
vt 0.676740 0.323607
vt 0.350268 0.676393
vt 0.317052 0.791163
vt 0.712804 0.058739
vt 0.695125 0.085197
vt 0.304875 0.761764
vt 0.682948 0.114596
vt 0.287196 0.735305
vt 0.676740 0.145806
vt 0.264695 0.712804
vt 0.676740 0.177627
vt 0.238236 0.695125
vt 0.682948 0.208837
vt 0.208837 0.682948
vt 0.695125 0.238236
vt 0.177627 0.676740
vt 0.712804 0.264695
vt 0.145806 0.676740
vt 0.735305 0.287196
vt 0.114596 0.682948
vt 0.761764 0.304875
vt 0.085197 0.695125
vt 0.791163 0.317052
vt 0.058739 0.712804
vt 0.822372 0.323260
vt 0.036238 0.735305
vt 0.854194 0.323260
vt 0.018559 0.761764
vt 0.885404 0.317052
vt 0.006381 0.791163
vt 0.914803 0.304875
vt 0.000173 0.822373
vt 0.941261 0.287196
vt 0.000173 0.854194
vt 0.963762 0.264695
vt 0.006381 0.885404
vt 0.981441 0.238236
vt 0.018559 0.914803
vt 0.993619 0.208837
vt 0.036238 0.941261
vt 0.999827 0.177627
vt 0.058739 0.963762
vt 0.999827 0.145806
vt 0.085197 0.981441
vt 0.993619 0.114596
vt 0.114596 0.993619
vt 0.981441 0.085197
vt 0.145806 0.999827
vt 0.963762 0.058739
vt 0.177627 0.999827
vt 0.941261 0.036238
vt 0.208837 0.993619
vt 0.914803 0.018559
vt 0.238236 0.981441
vt 0.885404 0.006381
vt 0.264695 0.963762
vt 0.854194 0.000173
vt 0.287196 0.941261
vt 0.822372 0.000173
vt 0.304875 0.914803
vt 0.791163 0.006381
vt 0.317052 0.885404
vt 0.323260 0.854194
vt 0.761764 0.018559
vt 0.323260 0.822373
vt 0.735305 0.036238
vt 0.838283 0.161717
s 1
f 1/1/1 2/4/2 4/8/3 3/6/4
f 3/6/4 4/8/3 8/16/5 7/13/6
f 7/14/6 8/17/5 6/12/7 5/10/8
f 5/10/8 6/12/7 2/5/2 1/2/1
f 3/7/4 7/15/6 5/11/8 1/3/1
f 8/17/5 4/9/3 2/5/2 6/12/7
f 9/19/9 41/82/10 10/20/11
f 10/20/11 41/82/10 11/22/12
f 11/22/12 41/82/10 12/24/13
f 12/24/13 41/82/10 13/26/14
f 13/26/14 41/82/10 14/28/15
f 14/28/15 41/82/10 15/30/16
f 15/30/16 41/82/10 16/32/17
f 16/32/17 41/82/10 17/34/18
f 17/34/18 41/82/10 18/36/19
f 18/36/19 41/82/10 19/38/20
f 19/38/20 41/82/10 20/40/21
f 20/40/21 41/82/10 21/42/22
f 21/42/22 41/82/10 22/44/23
f 22/44/23 41/82/10 23/46/24
f 23/46/24 41/82/10 24/48/25
f 24/48/25 41/82/10 25/50/26
f 25/50/26 41/82/10 26/52/27
f 26/52/27 41/82/10 27/54/28
f 27/54/28 41/82/10 28/56/29
f 28/56/29 41/82/10 29/58/30
f 29/58/30 41/82/10 30/60/31
f 30/60/31 41/82/10 31/62/32
f 31/62/32 41/82/10 32/64/33
f 32/64/33 41/82/10 33/66/34
f 33/66/34 41/82/10 34/68/35
f 34/68/35 41/82/10 35/70/36
f 35/70/36 41/82/10 36/72/37
f 36/72/37 41/82/10 37/74/38
f 37/74/38 41/82/10 38/76/39
f 38/76/39 41/82/10 39/79/40
f 9/18/9 10/21/11 11/23/12 12/25/13 13/27/14 14/29/15 15/31/16 16/33/17 17/35/18 18/37/19 19/39/20 20/41/21 21/43/22 22/45/23 23/47/24 24/49/25 25/51/26 26/53/27 27/55/28 28/57/29 29/59/30 30/61/31 31/63/32 32/65/33 33/67/34 34/69/35 35/71/36 36/73/37 37/75/38 38/77/39 39/78/40 40/80/41
f 39/79/40 41/82/10 40/81/41
f 40/81/41 41/82/10 9/19/9
